<?xml version="1.0" encoding="utf-8"?>
<!-- Generator: Adobe Illustrator 24.3.0, SVG Export Plug-In . SVG Version: 6.00 Build 0)  -->
<svg version="1.1" id="Layer_1" xmlns="http://www.w3.org/2000/svg" xmlns:xlink="http://www.w3.org/1999/xlink" x="0px" y="0px"
	 viewBox="0 0 595.3 595.3" style="enable-background:new 0 0 595.3 595.3;" xml:space="preserve">
<style type="text/css">
	.st0{fill:none;stroke:#000000;stroke-width:6;stroke-miterlimit:10;}
	.st1{font-family:'ArialRoundedMTBold';}
	.st2{font-size:48px;}
	.st3{fill:none;stroke:#000000;stroke-width:18;stroke-miterlimit:10;}
	.st4{stroke:#000000;stroke-width:12;stroke-miterlimit:10;}
	.st5{stroke:#000000;stroke-width:2;stroke-miterlimit:10;}
	.st6{fill:none;stroke:#000000;stroke-width:42;stroke-miterlimit:10;}
	.st7{font-family:'PTSans-Bold';}
	.st8{font-size:361.7996px;}
</style>
<path class="st0" d="M477.9,504.3H98.5c-14.9,0-26.9-12-26.9-26.9V98c0-14.9,12-26.9,26.9-26.9h379.4c14.9,0,26.9,12,26.9,26.9
	v379.4C504.8,492.2,492.8,504.3,477.9,504.3z"/>
<path class="st0" d="M153.5,94.3"/>
<path class="st0" d="M153.6,359.9"/>
<text transform="matrix(1 0 0 1 188.6998 562.2155)" class="st1 st2">Linkedln</text>
<path class="st3" d="M280.6,151.8"/>
<path class="st3" d="M191.1,241.2"/>
<path class="st3" d="M280.6,330.7"/>
<path class="st4" d="M280.5,210.8"/>
<path class="st4" d="M250.2,241.1"/>
<path class="st4" d="M280.5,271.4"/>
<path class="st3" d="M280.5,184"/>
<path class="st3" d="M223.7,240.8"/>
<path class="st3" d="M280.5,297.6"/>
<path class="st5" d="M299.8,283.1"/>
<path class="st6" d="M319.6,322.9"/>
<text transform="matrix(1.0398 0 0 1 133.7598 405.4902)" class="st7 st8">in</text>
</svg>
