<?xml version="1.0" encoding="utf-8"?>
<!-- Generator: Adobe Illustrator 24.3.0, SVG Export Plug-In . SVG Version: 6.00 Build 0)  -->
<svg version="1.1" id="Layer_1" xmlns="http://www.w3.org/2000/svg" xmlns:xlink="http://www.w3.org/1999/xlink" x="0px" y="0px"
	 viewBox="0 0 100 100" style="enable-background:new 0 0 100 100;" xml:space="preserve">
<style type="text/css">
	.st0{fill:none;stroke:#010101;stroke-width:4;stroke-miterlimit:10;}
	.st1{fill:#010101;stroke:#010101;stroke-width:4;stroke-miterlimit:10;}
	.st2{fill:none;stroke:#676767;stroke-width:4;stroke-miterlimit:10;}
	.st3{fill:#676767;}
	.st4{fill:#010101;}
	.st5{font-family:'ArialRoundedMTBold';}
	.st6{font-size:7px;}
</style>
<g>
	<path class="st0" d="M79.6,66.5H19c-5.5,0-9.9-3.7-9.9-8.2V26.6c0-4.5,4.4-8.2,9.9-8.2h15.3c3,0,5.8-1.1,7.7-2.9l2.6-2.5l16,0.2
		l1.5,2.7c0.9,1.6,2.8,2.6,5,2.6h12.6c5.5,0,9.9,3.7,9.9,8.2v31.8C89.6,62.9,85.1,66.5,79.6,66.5z"/>
	<path class="st1" d="M28.6,18.5h-6.3c-0.7,0-1.2-0.6-1.2-1.4v-0.4c0-0.8,0.5-1.4,1.2-1.4h6.3c0.7,0,1.2,0.6,1.2,1.4v0.4
		C29.9,17.9,29.3,18.5,28.6,18.5z"/>
	<g>
		<ellipse class="st0" cx="49.3" cy="41.6" rx="18.1" ry="15.7"/>
	</g>
	<ellipse class="st2" cx="49.4" cy="41.7" rx="11.6" ry="10.1"/>
	<path class="st3" d="M27.7,28.2H16.5c-0.5,0-1-0.5-1-1.1v-2.3c0-0.6,0.4-1.1,1-1.1h11.2c0.5,0,1,0.5,1,1.1v2.3
		C28.7,27.7,28.3,28.2,27.7,28.2z"/>
</g>
<text transform="matrix(1.3676 0 0 1 12.415 76.9542)" class="st4 st5 st6">Content Creator</text>
</svg>
