<?xml version="1.0" encoding="utf-8"?>
<!-- Generator: Adobe Illustrator 24.3.0, SVG Export Plug-In . SVG Version: 6.00 Build 0)  -->
<svg version="1.1" id="Layer_1" xmlns="http://www.w3.org/2000/svg" xmlns:xlink="http://www.w3.org/1999/xlink" x="0px" y="0px"
	 viewBox="0 0 595.3 595.3" style="enable-background:new 0 0 595.3 595.3;" xml:space="preserve">
<style type="text/css">
	.st0{fill:none;stroke:#000000;stroke-width:6;stroke-miterlimit:10;}
	.st1{fill:none;stroke:#000000;stroke-width:2;stroke-miterlimit:10;}
	.st2{font-family:'ArialRoundedMTBold';}
	.st3{font-size:48px;}
</style>
<path class="st0" d="M477.9,504.3H98.5c-14.9,0-26.9-12-26.9-26.9V98c0-14.9,12-26.9,26.9-26.9h379.4c14.9,0,26.9,12,26.9,26.9
	v379.4C504.8,492.2,492.8,504.3,477.9,504.3z"/>
<path class="st0" d="M153.5,94.3"/>
<path class="st0" d="M153.6,359.9"/>
<g>
	<path class="st0" d="M175.8,441.2L434.2,314c14.2-7,14.6-29.1,0.6-36.7L170.3,133.6c-12.4-6.8-27,3.2-27,18.5v266
		C143.3,436.5,160.5,448.8,175.8,441.2z"/>
</g>
<line class="st1" x1="351.4" y1="354.8" x2="143.3" y2="174.8"/>
<line class="st1" x1="350.4" y1="230" x2="142.3" y2="410"/>
<text transform="matrix(1 0 0 1 153.5175 561.639)" class="st2 st3">Google Play</text>
</svg>
