<?xml version="1.0" encoding="utf-8"?>
<!-- Generator: Adobe Illustrator 24.3.0, SVG Export Plug-In . SVG Version: 6.00 Build 0)  -->
<svg version="1.1" id="Layer_1" xmlns="http://www.w3.org/2000/svg" xmlns:xlink="http://www.w3.org/1999/xlink" x="0px" y="0px"
	 viewBox="0 0 100 100" style="enable-background:new 0 0 100 100;" xml:space="preserve">
<style type="text/css">
	.st0{fill:none;stroke:#010101;stroke-width:4;stroke-miterlimit:10;}
	.st1{fill:#010101;}
	.st2{font-family:'ArialRoundedMTBold';}
	.st3{font-size:7px;}
</style>
<g>
	<g>
		<path class="st0" d="M59.2,66.9c-6,1.8-12.9,1.8-18.9,0l-0.1,0"/>
		<polyline class="st0" points="40.4,67.5 40.4,29 50,16.1 59.4,29 59.4,67.5 59.4,67.5 		"/>
		<path class="st0" d="M59.4,29.7c-6,1.8-12.9,1.8-18.9,0"/>
		<path class="st0" d="M59.4,62.3c-6,1.8-12.9,1.8-18.9,0"/>
		<path class="st0" d="M53.9,20.9c-2.4,0.9-5.2,0.9-7.6,0"/>
		<line class="st0" x1="49.9" y1="30.3" x2="49.7" y2="58.3"/>
	</g>
	<path class="st0" d="M68.6,78.4h-37c-5.9,0-10.7-4.7-10.7-10.6V18c0-5.8,4.8-10.6,10.7-10.6h37c5.9,0,10.7,4.7,10.7,10.6v49.9
		C79.2,73.7,74.5,78.4,68.6,78.4z"/>
</g>
<text transform="matrix(1.1606 0 0 1 20.8828 89.8917)" class="st1 st2 st3">Grafich Desain</text>
</svg>
