<?xml version="1.0" encoding="utf-8"?>
<!-- Generator: Adobe Illustrator 24.3.0, SVG Export Plug-In . SVG Version: 6.00 Build 0)  -->
<svg version="1.1" id="Layer_1" xmlns="http://www.w3.org/2000/svg" xmlns:xlink="http://www.w3.org/1999/xlink" x="0px" y="0px"
	 viewBox="0 0 595.3 595.3" style="enable-background:new 0 0 595.3 595.3;" xml:space="preserve">
<style type="text/css">
	.st0{fill:none;stroke:#000000;stroke-width:6;stroke-miterlimit:10;}
	.st1{font-family:'ArialRoundedMTBold';}
	.st2{font-size:48px;}
	.st3{fill:none;stroke:#000000;stroke-width:9;stroke-miterlimit:10;}
	.st4{stroke:#000000;stroke-width:9;stroke-miterlimit:10;}
</style>
<path class="st0" d="M477.9,504.3H98.5c-14.9,0-26.9-12-26.9-26.9V98c0-14.9,12-26.9,26.9-26.9h379.4c14.9,0,26.9,12,26.9,26.9
	v379.4C504.8,492.2,492.8,504.3,477.9,504.3z"/>
<path class="st0" d="M153.5,94.3"/>
<path class="st0" d="M153.6,359.9"/>
<text transform="matrix(1 0 0 1 169.4342 562.2155)" class="st1 st2">Instagram</text>
<path class="st3" d="M392.5,438.1H186.6c-26.3,0-47.7-21.4-47.7-47.7V193.5c0-26.3,21.4-47.7,47.7-47.7h205.8
	c26.3,0,47.7,21.4,47.7,47.7v196.9C440.2,416.7,418.8,438.1,392.5,438.1z"/>
<circle class="st3" cx="289.6" cy="291.9" r="87.8"/>
<circle class="st4" cx="389.5" cy="202.4" r="13.4"/>
</svg>
